<?xml version="1.0" encoding="UTF-8"?>
<svg version="1.1" viewBox="0 0 1024 1024" width="1024" height="1024" xmlns="http://www.w3.org/2000/svg">
<path transform="translate(497,71)" d="m0 0h25l39 3 26 4 25 5 26 7 37 13 27 12 19 10 13 7 22 14 14 10 16 12 14 12 4 3v2l4 2 4 3v2l4 2 9 9v2h2l7 8 9 10 9 11 12 15 13 19 13 21 13 24 10 21 10 25 10 31 6 22 4 19 4 29 2 31v40l-3 36-5 30-7 30-7 24-9 24-9 21-8 16-11 21-13 21-13 19-21 27h-2l-2 4-11 12-2 3h-2l-2 4-12 12-8 7-10 9-10 8-13 10-14 10-17 11-17 10-23 12-25 11-24 9-23 7-30 7-24 4-34 3h-54l-33-3-33-6-17-4-28-8-31-12-22-10-18-10-11-6-22-14-18-13-12-10-14-11-7-7-2-1v-2l-4-2v-2l-4-2-8-8-7-8-7-7-9-11-13-16-14-20-12-19-10-17-8-15-12-26-10-26-6-18-7-26-6-31-3-20-3-39v-21l2-33 4-30 5-25 6-25 12-36 8-20 7-15 12-23 6-10 12-19 12-17 11-14 14-17 8-8 7-8 7-7 8-7 7-7 11-9 14-11 18-13 17-11 24-14 16-8 19-9 37-14 31-9 24-5 26-4zm255 159-3 2-2 5-1 3-3 1-1 6-3 1 1 4h-2l-2 4v7l-8-4-7 2-13 13-3 5-3 3 5 4 5 5 4-1 12-12 7-8 5-4 3-5 5-5 1-7h4l2 6 5-1 3-12-2-4-6-8zm-54 21 1 2z" fill="#236398"/>
<path transform="translate(497,71)" d="m0 0h25l39 3 26 4 25 5 26 7 37 13 27 12 19 10 13 7 22 14 14 10 16 12 14 12 4 3v2l4 2 4 3v2l4 2 9 9v2h2l7 8 9 10 9 11 12 15 13 19 13 21 13 24 10 21 10 25 10 31 6 22 4 19 4 29 2 31v40l-3 36-5 30-7 30-7 24-9 24-9 21-8 16-11 21-13 21-13 19-21 27h-2l-2 4-11 12-2 3h-2l-2 4-12 12-8 7-10 9-10 8-13 10-14 10-17 11-17 10-23 12-25 11-24 9-23 7-30 7-24 4-34 3h-54l-33-3-33-6-17-4-28-8-31-12-22-10-18-10-11-6-22-14-18-13-12-10-14-11-7-7-2-1v-2l-4-2v-2l-4-2-8-8-7-8-7-7-9-11-13-16-14-20-12-19-10-17-8-15-12-26-10-26-6-18-7-26-6-31-3-20-3-39v-21l2-33 4-30 5-25 6-25 12-36 8-20 7-15 12-23 6-10 12-19 12-17 11-14 14-17 8-8 7-8 7-7 8-7 7-7 11-9 14-11 18-13 17-11 24-14 16-8 19-9 37-14 31-9 24-5 26-4zm3 23-32 2-33 5-30 7-25 7-19 7-21 9-26 13-27 16-15 10-16 12-10 8-11 9-12 11-21 21-9 11-11 13-11 15-10 15-8 13-9 16-8 16-7 15-10 26-9 29-6 24-5 28-3 27-1 17v26l2 32 4 27 6 29 7 25 8 24 15 35 12 23 14 23 12 17 13 17 8 10 9 10 1 2h2l2 4 25 25 11 9 13 11 18 13 18 12 19 11 21 11 20 9 30 11 34 9 33 6 30 3 24 1h18l32-2 23-3 30-6 29-8 30-11 26-12 19-10 17-10 22-15 13-10 11-9 12-11 8-7 18-18 7-8 11-13 13-17 12-17 10-16 11-19 12-24 13-32 9-28 7-28 4-22 3-26 1-11v-55l-4-36-4-23-7-28-11-33-10-24-11-23-13-23-15-22-14-19-13-15-11-12-6-7h-2l-1-3-8-7-8-8-11-9-12-10-18-13-15-10-19-11-23-12-25-11-24-9-24-7-32-7-26-4-22-2-18-1z" fill="#27669A"/>
<path transform="translate(500,94)" d="m0 0h20l31 2 30 4 28 6 23 6 21 7 27 11 25 12 20 11 22 14 17 13 13 10 10 9 8 7 8 8 3 2v2h2l7 8 7 7 9 11 8 9 13 18 16 24 15 27 12 26 9 24 8 24 8 33 4 25 3 29v55l-3 30-4 24-6 25-6 21-8 23-12 28-13 26-8 13-12 19-13 18-13 16-11 13-12 13-16 16-8 7-14 12-20 15-15 10-17 10-18 10-23 11-26 10-21 7-28 7-27 5-31 3-28 1h-17l-37-3-26-4-27-6-25-7-27-10-30-14-22-12-19-12-18-13-14-11-14-12-10-9-20-20v-2h-2l-9-11-7-8-15-20-12-17-16-27-12-23-10-24-7-18-9-30-6-26-5-30-2-19-1-21v-26l2-25 3-25 5-26 9-34 9-26 10-24 8-16 10-19 8-13 10-15 10-14 9-11 11-13 11-12 21-21 11-9 16-13 18-13 21-13 21-12 28-14 23-9 21-7 40-10 30-5 23-2zm-10 17-32 3-28 5-25 6-26 8-28 11-29 14-24 14-21 14-17 13-13 11-8 7-24 24-7 8-13 15-14 19-13 20-12 22-12 25-11 29-9 30-6 27-4 25-3 33v30l2 28 5 35 6 26 6 20 8 24 12 27 12 23 13 22 13 19 12 16 13 15 11 12 23 23 10 8 13 11 18 13 16 10 19 11 23 12 24 10 33 11 24 6 36 6 24 2h51l32-3 27-5 21-5 29-9 22-9 29-14 24-14 18-12 12-9 14-11 15-14 2-1v-2l4-2 13-13 7-8 13-15 13-17 13-19 12-20 12-22 9-19 11-29 7-22 6-24 6-36 2-21 1-32-1-28-4-33-5-26-6-22-10-30-11-26-12-24-10-17-10-15-10-14-11-14-9-10-14-16h-2l-2-4-16-15-14-12-17-13-14-10-19-12-24-13-24-11-30-11-24-7-26-6-31-5-26-2z" fill="#5B9ED0"/>
<path transform="translate(618,265)" d="m0 0 6 2 22 12 19 12 13 10 13 11 24 24 13 17 8 11 12 20 12 26 10 30 5 22 3 20 1 12v36l-4 31-6 25-8 24-9 20-10 20-10 15-11 15-11 13-12 13-14 13-14 11-10 7-13 8-18 10-25 10-9 2 5-4 14-10 12-11 10-10 10-13 11-18 8-17 7-22 4-20 1-10v-22l-2-18-5-21-8-21-11-20-10-14-12-14-8-8-8-6 6-7 7-7 10-13 9-15 7-15 5-15 4-18 1-8v-30l-3-19-4-15-8-20-10-17-11-14-8-9z" fill="#5B9ED0"/>
<path transform="translate(405,265)" d="m0 0 2 1-10 10-12 17-12 23-7 21-4 20-1 21 2 22 4 18 7 19 10 19 12 16 9 10 5 5-2 4-3 3h-2v2l-8 7-11 11-13 18-13 25-6 18-4 21-1 7v35l3 19 6 21 8 19 10 17 11 15 12 13 13 12 18 12 2 2-5-1-21-8-16-8-20-11-14-10-10-8-9-7v-2l-4-2-15-15-18-22-14-21-9-16-10-21-8-23-7-27-4-25-2-22v-13l2-26 4-24 6-23 6-18 7-17 10-19 13-21 13-17 9-10 7-8 16-15 14-11 16-11 17-10 17-9z" fill="#5B9ED0"/>
<path transform="translate(419,555)" d="m0 0h2l6 11 11 14 7 7-1 5-4 13-1 5v25l3 12 7 14 7 9 10 10 13 8 13 5 10 2h19l16-4 14-7 10-8 8-8 9-14 6-18 1-6v-18l-3-14-4-9 2-4 7-7 1-2h2l2-4 9-14 1-3 4 2 9 16 7 21 2 13v25l-4 22-6 16-9 15-7 9-11 12-12 9-13 8-15 6-15 4-7 1h-29l-18-4-19-8-14-9-10-9-11-11-10-14-8-17-5-17-2-11v-23l2-13 6-21 7-14z" fill="#5B9ED0"/>
<path transform="translate(497,279)" d="m0 0h29l17 4 16 7 11 7 14 12 8 10 8 14 5 12 4 16 1 6v15l-3 16-5 15-8 16-8 10-7-6-13-10-8-5 6-9 6-11 4-15v-15l-3-14-8-16-10-11-14-9-12-4-5-1h-20l-12 3-14 7-12 11-9 14-4 12-1 5v18l4 15 6 11 5 8-13 8-11 9-4 3-9-12-8-16-4-14-2-14v-13l2-14 5-15 9-17 9-11 11-11 14-9 12-6 16-5z" fill="#5B9ED0"/>
<path transform="translate(613,514)" d="m0 0 4 2 9 9 11 16 12 23 6 19 3 16 1 10v24l-3 20-5 18-7 16-8 15-10 14-9 10-8 7-10 9-18 11-12 6-16 6-16 4-20 2h-11l-18-2-17-4-19-7-17-9-14-10-17-16-12-15-7-11-9-17-7-20-4-20-1-19v-9l2-17 5-21 6-16 9-16 8-11 10-11 2-3h2l1-2 4 20-8 10-9 14-7 16-5 18-2 12v34l5 21 6 16 8 15 12 17 14 14 14 10 14 8 17 7 16 4 16 2h18l19-3 21-7 16-8 14-10 10-9 10-10 7-10 8-14 8-18 4-14 3-22v-17l-3-20-6-20-8-16-9-14-5-6 1-10z" fill="#5B9ED0"/>
<path transform="translate(497,243)" d="m0 0h33l19 4 19 7 15 8 11 8 13 11v2l4 2 8 10 8 13 9 17 6 20 2 10 1 11v19l-3 19-5 17-10 21-10 14-9 11h-2l-1 2-8-14 4-6 9-12 8-15 6-18 3-17v-25l-3-17-7-19-9-16-10-13-10-10-14-10-16-8-11-4-17-4-10-1h-16l-20 3-18 6-17 9-11 8-10 9-11 14-9 15-6 15-4 16-1 8v26l3 16 7 19 7 13 7 10 4 5-2 6-5 9-4-2-9-10-9-14-8-17-6-20-3-20v-17l3-21 5-17 7-16 10-16 11-13 11-11 14-10 14-8 15-6 14-4z" fill="#5B9ED0"/>
<path transform="translate(460,599)" d="m0 0 20 8 17 4h26l19-4 16-7 4-1 4 9 1 5v15l-3 11-6 12-8 10-10 8-10 5-5 2-8 1h-16l-12-4-11-7-10-10-7-11-4-13-1-8v-11l2-9z" fill="#EDEBE5"/>
<path transform="translate(506,331)" d="m0 0h11l13 4 10 6 8 8 7 14 1 5v15l-3 10-8 11-6 6-8-1-12-2h-17l-11 2h-7l-7-7-6-10-3-10v-15l3-10 6-10 7-7 16-8z" fill="#EDEBE5"/>
<path transform="translate(429,145)" d="m0 0h9l10 4 6 9 1 4v10l-5 8 5 1 5 4 4 7 1 5v12l-5 8-8 5-11 4-5 1h-11l-10-5-4-6-3-9v-10l4-7 3-4-5-1-6-7-2-6v-11l4-6 6-5 12-4z" fill="#EDECE7"/>
<path transform="translate(554,140)" d="m0 0 12 1 21 4 9 4 7 6 2 5v14l-3 10-5 6-6 3h-3l4 14 3 14v4l-16-2-4-10-4-15v-5l-9-1-3 21-1 5-14-1-3-1 5-33 7-40z" fill="#ECEBE6"/>
<path transform="translate(298,208)" d="m0 0h7l8 5 7 7 5 9v9l-4 8 5 1 23 13v2l-12 9-16-8-9-5-5 1-3 3 16 20-2 4-9 7-4-2-10-13-12-16-14-18-8-11 2-4 18-13 13-7z" fill="#EEECE7"/>
<path transform="translate(836,329)" d="m0 0h3l7 15-2 4-14 19-8 11-5 7 20-9 16-7h3l4 10 1 5-29 13-28 12-9 4h-3l-6-13 2-4 13-18 13-17v-2l-17 9-19 9h-2l-7-15 15-8 23-11z" fill="#EEECE6"/>
<path transform="translate(543,484)" d="m0 0 4 1 11 11 9 12v8l-5 16-5 10-8 4-14 4-11 1-2-4-4-2-12-13-5-6 3-11 7-21 1-2 29-7z" fill="#EDEBE5"/>
<path transform="translate(656,166)" d="m0 0 17 7 4 2-1 13-3 25-6 42-5-1-11-6 1-15-4-1-17-7-4 1-7 8-16-6 2-4 11-12 9-11 9-10 9-11z" fill="#EEECE6"/>
<path transform="translate(189,330)" d="m0 0h15l6 3-1 5-5 11-11-1-4 5-3 7 1 7 8 5 26 12h6l5-6 2-4-1-9-8-5-2-1-3 9-3 1-10-5 2-6 10-20 16 8 12 7 4 5v15l-8 16-7 8-4 3-3 1h-12l-10-3-16-8-13-7-7-8-2-5v-12l8-16 6-8z" fill="#EEECE7"/>
<path transform="translate(846,414)" d="m0 0h15l8 4 7 8 4 11 1 7v13l-5 8-5 4-7 3-5-1-3-12v-4l6-2 2-4-1-10-2-6-5-1h-7l-28 6-4 2-1 2v10l3 6 2 1h9l2-2-1-9 6-1h8l5 26-10 2-14 2h-9l-6-4-7-8-3-9-1-7v-12l3-7 5-5 10-5z" fill="#EDECE7"/>
<path transform="translate(238,256)" d="m0 0 4 1 11 9 17 14 11 9 6 5 4 8v8l-4 8-7 9-8 8-5 3h-13l-8-4-17-13-13-10-14-11 2-5 8-9 8 6 14 11 18 14 6 3h6l5-4 3-7-1-6-13-11-14-11-11-9-4-3 2-4z" fill="#EEECE7"/>
<path transform="translate(518,430)" d="m0 0h6l14 10 12 11v8l-5 18-4 3-21 5-10 1-16-15-7-6v-7l5-17 4-4z" fill="#EDEBE5"/>
<path transform="translate(366,166)" d="m0 0h2l6 11 1 3-25 12 3 9 2 4 6-2 15-8h2l6 12-1 3-20 10 6 12h2l23-11 3 1 6 10v2l-35 18-5 3h-2l-33-66v-4z" fill="#EEECE7"/>
<path transform="translate(464,528)" d="m0 0h19l13 1 13 15 11 11-2 6-9 17-5 1h-18l-13-3-3-2v-2l-4-2-8-10-5-8 1-5 8-16z" fill="#EDEBE5"/>
<path transform="translate(757,232)" d="m0 0h2l7 8-1 7-6 23-4 14-1 5 31-31 11 11-2 4-27 27-8 7-16 16h-2l-9-11 4-16 8-26 2-9-6 5 2-5 5-5 1-7 5-1 2 3v4l4-1 3-12-2-4z" fill="#EEECE7"/>
<path transform="translate(145,438)" d="m0 0 12 1 3 1-3 22-1 5 11 1 5 1 1-12 1-9 14 1 1 3-3 20 27 4 4 1-1 14-1 3-36-6-20-4-20-3 2-18 3-24z" fill="#ECEBE7"/>
<path transform="translate(412,807)" d="m0 0 11 1 10 6 4 6v11l-6 21-6 8-4 3h-13l-10-5-5-6-1-3v-7l6-20 5-10 6-4z" fill="#ECECE8"/>
<path transform="translate(767,689)" d="m0 0 11 7 21 16 12 9-6 9-4-2-18-14-7-6 7 11 9 13 4 7-4 5-9-3-24-10 13 12 11 9v3l-5 7h-2l-5-5-15-14-11-9-8-7 2-4 7-7 10 3 20 8-2-4-14-21v-4z" fill="#EEEDE8"/>
<path transform="translate(492,138)" d="m0 0h38l1 3v12h-20l2 48v14l-17 1-2-47v-15h-19l-1-3v-12z" fill="#EBEBE6"/>
<path transform="translate(248,697)" d="m0 0h9l8 4 7 8 2 5v7l-3 6-14 13-8 6-4 2h-8l-8-5-7-8-2-4v-9l4-7 12-10z" fill="#EDECE8"/>
<path transform="translate(470,430)" d="m0 0 5 1 9 4 3 2-3 10-4 15-4 5-17 12-8 6-9-1-10-4v-8l8-15 9-11 10-9z" fill="#EDEBE5"/>
<path transform="translate(360,786)" d="m0 0 9 3 14 7 6 7v10l-6 11-5 3h-5v23l-6-2-5-3-1-21-5-1-7 15-4-1-6-3 1-5 15-32z" fill="#EEEDE8"/>
<path transform="translate(431,487)" d="m0 0 13 3 6 4 6 23 1 2v9l-9 18-7-1-11-6-5-15-1-8v-17z" fill="#EDECE6"/>
<path transform="translate(288,730)" d="m0 0 4 2 3 4-2 13-5 22 1-1 13-14 6-7 8 6-2 4-9 10-12 13-11 12-4-2-4-4 5-25 2-11-7 8-12 12-1 2-4-2-4-4 2-4 14-15z" fill="#EEEDE8"/>
<path transform="translate(589,501)" d="m0 0 3 1 6 12v9l-5 17-6 11-9 10-8 4h-3l-5-15v-7l6-12 6-20 10-7z" fill="#AEC9DD"/>
<path transform="translate(587,813)" d="m0 0h2l4 15 7 35v3l-11 2-2-7-2-14-16 3 3 15v6l-10 2-2-5-7-41v-6l10-2 2 6 2 14 12-3h3l-4-20z" fill="#EBEBE7"/>
<path transform="translate(718,743)" d="m0 0 5 2 41 26 2 1v2l-7 6-10-4-10 9h-2l3 7-1 4-6 5h-2l-7-16-14-33 2-4z" fill="#EFEDE8"/>
<path transform="translate(154,401)" d="m0 0 9 1 22 6 24 7 21 6-4 16-15-3-18-5-25-7-17-5-1-2 3-13z" fill="#ECEBE6"/>
<path transform="translate(682,772)" d="m0 0h9l8 7v2l-7 5-4-2h-7l-3 1v10l7 11 6 7 5 1 7-2v-9l-1-2-5 1-4 1-5-8 14-9 3-1 8 13 2 3v11l-4 6-10 7-3 1h-7l-7-4-8-9-8-13-2-5v-7l4-8 7-6z" fill="#EDECE8"/>
<path transform="translate(719,200)" d="m0 0 5 2 9 7-4 7-24 34-14 19-1 2-5-2-9-7 7-11 13-18 16-23zm-21 51 1 2z" fill="#EFEDE7"/>
<path transform="translate(628,799)" d="m0 0 3 1 3 9-17 7h-2l3 8v2l14-5h2l3 10-12 5h-3l3 7v4l18-7h2l3 7v4l-20 8-9 2-5-12-7-20-5-14-1-5z" fill="#EDECE8"/>
<path transform="translate(811,292)" d="m0 0 3 1 8 11-5 5-21 16-19 14-13 10h-3l-7-11 1-4 12-9 21-16 19-14z" fill="#EEECE7"/>
<path transform="translate(790,651)" d="m0 0 9 5-8 16 8 5 8-13 6 2 3 2-1 5-6 11 10 6 2-6 7-11 6 2 3 2-1 4-13 23-3 1-22-14-22-15 2-5z" fill="#EEEDE8"/>
<path transform="translate(221,655)" d="m0 0h9l6 3 8 9 2 5v7l-4 6-6 5-4-5-2-5 4-2v-6l-4-5h-7l-12 7-7 5v7l2 3 8 1 5 10-3 2h-11l-6-4-6-9-1-2v-11l7-8 16-10z" fill="#EFEDE9"/>
<path transform="translate(323,762)" d="m0 0 4 1 27 18-2 5-3 5-9-6-3-1-2 5-12 17-8 11h-4l-6-4 2-5 14-20 6-9 1-3-5-2-5-5z" fill="#EEEDE8"/>
<path transform="translate(533,822)" d="m0 0h9l1 10-12 1 2 36v7h-11l-3-40v-2h-12l-1-11z" fill="#ECEBE7"/>
<path transform="translate(453,817)" d="m0 0 9 1 2 1-2 13-5 28 6 2 12 2-1 11-21-3-9-2 2-18 5-24z" fill="#ECECE8"/>
<path transform="translate(518,553)" d="m0 0 2 4-10 20-6 2h-18l-13-3-3-2v-2l-4-2-2-3 3-1 5 1h18l13-4 10-6z" fill="#AFCADD"/>
<path transform="translate(413,818)" d="m0 0h8l5 5-1 11-4 13-4 5-7 1-6-4v-9l5-17z" fill="#246499"/>
<path transform="translate(251,708)" d="m0 0h7l5 5v6l-5 6-8 7-6 4h-8l-4-5v-8l11-10z" fill="#246499"/>
<path transform="translate(472,582)" d="m0 0 16 2h22l23 8v2l-7 2-7 1h-18l-14-3-13-5-3-2z" fill="#AEC9DD"/>
<path transform="translate(695,235)" d="m0 0 2 4 4 1-1 2 6 1 1 4-13 18-4 6-5-2-9-7 7-11zm3 16 1 2z" fill="#FAFAF9"/>
<path transform="translate(183,569)" d="m0 0 8 1 5 5 2 4-1 9-5 5-5 2-9-2-5-6v-9l4-6z" fill="#5B9ED0"/>
<path transform="translate(836,576)" d="m0 0 8 2 4 5 1 2v8l-3 5-5 3h-9l-6-5-1-2v-10l5-6z" fill="#5B9ED0"/>
<path transform="translate(565,506)" d="m0 0 2 2v8l-5 16-5 10-8 4-14 4h-10v-3l12-6 10-8 7-7 7-11z" fill="#B0CADD"/>
<path transform="translate(525,423)" d="m0 0h7l16 6 12 7 10 8 7 7 3 4-1 2-12-5-10-2-9-9-13-10-9-6z" fill="#EDECE9"/>
<path transform="translate(434,190)" d="m0 0h8l5 5 1 4v8l-8 5h-11l-4-6v-9l4-5z" fill="#246499"/>
<path transform="translate(296,224)" d="m0 0h6l7 8v6l-10 9-5 3-12-15 5-5z" fill="#246499"/>
<path transform="translate(568,157)" d="m0 0 16 3 4 3v7l-3 8-2 1-17-1-1-5z" fill="#236398"/>
<path transform="translate(757,232)" d="m0 0h2l7 8-1 7-6 23-2 5-7 1-1-3-2-1-1-1-2 2 2-12-6 5 2-5 5-5 1-7 5-1 2 3v4l4-1 3-12-2-4z" fill="#F8F9F9"/>
<path transform="translate(425,160)" d="m0 0h10l4 5 1 7-5 5-3 1h-9l-3-3-1-3v-7l4-4z" fill="#246599"/>
<path transform="translate(658,188)" d="m0 0h1l-1 15-2 14-1 2-9-3-7-3 2-4 8-10z" fill="#26669B"/>
<path transform="translate(748,232)" d="m0 0 1 4-5 5-2 6-2 2v3h-2l-2 11-6-2-2-1-7 1 6-7 7-7 7-8z" fill="#F9F9F9"/>
<path transform="translate(366,800)" d="m0 0 5 1 7 4v6l-3 5-8-1-6-2 3-10z" fill="#26679B"/>
<path transform="translate(719,200)" d="m0 0 5 2 9 7-4 7-6 8v-3l3-6-6-5h-1l-1-2-4 3-2-1z" fill="#F7F8F7"/>
<path transform="translate(567,570)" d="m0 0h5l-3 5-10 8-11 6-7 2 5-5 16-13z" fill="#AAC7DC"/>
<path transform="translate(585,464)" d="m0 0h2l9 21 3 18-4-4-3-5-3-16-4-12z" fill="#E3E9EB"/>
<path transform="translate(687,248)" d="m0 0 2 2-1 2h2v4l2-1-1 9-4 1h-3l-5-2-1-2 2-5 3-5 3-1z" fill="#EFECE5"/>
<path transform="translate(724,758)" d="m0 0 11 7 6 4-4 5-5 2-8-16z" fill="#28689D"/>
<path transform="translate(529,832)" d="m0 0h2l2 37v7h-11l-1-16h2v15l8-1-2-31z" fill="#ECF1F5"/>
<path transform="translate(757,232)" d="m0 0h2l7 8-1 7-2 7-3 2 1-12 1-4-4-5z" fill="#EEF3F6"/>
<path transform="translate(222,420)" d="m0 0 8 1-4 16-15-3-4-3 10 2 7 1 4-12-6-1z" fill="#EAF0F5"/>
<path transform="translate(680,256)" d="m0 0v3l-1 3 4 2 3-1 2 3 3-1-1 6-5-2-9-7z" fill="#F3F3F3"/>
<path transform="translate(496,182)" d="m0 0h1l1 32h11v1l-13 1z" fill="#F5F7F7"/>
<path transform="translate(561,819)" d="m0 0 3 1 4 21-3-2-3-18-4 1-2-2z" fill="#DDE8F0"/>
<path transform="translate(585,464)" d="m0 0h2l7 17-4 1-5-16z" fill="#E8EFF3"/>
<path transform="translate(674,776)" d="m0 0 3 1-7 7-1 2-1 10-2-1v-7l4-8z" fill="#DBE6ED"/>
<path transform="translate(458,438)" d="m0 0 2 1-14 14-2-1 9-10z" fill="#EEF0EE"/>
<path transform="translate(651,245)" d="m0 0 8 5 6 3 1-7h1v9l-5-1-11-6z" fill="#F9FAFA"/>
<path transform="translate(566,442)" d="m0 0 4 2 7 7 3 4-1 2-5-3v-3l-8-8z" fill="#F4F6F7"/>
<path transform="translate(762,243)" d="m0 0 2 2v7l-4 4 1-12z" fill="#F1F3F3"/>
<path transform="translate(694,238)" d="m0 0 3 4h-3v3l-2 1v3l-3-2 2-7h3z" fill="#EDEBE5"/>
<path transform="translate(308,749)" d="m0 0 2 2-10 10-2-1z" fill="#F3F4F3"/>
<path transform="translate(809,424)" d="m0 0 2 1-7 8-2 6h-1v-6l5-7z" fill="#ECF1F4"/>
<path transform="translate(687,248)" d="m0 0 2 2-2 5-4 1h-3l3-5 3-1z" fill="#EFEFEC"/>
<path transform="translate(593,492)" d="m0 0 2 3 2-3 2 11-4-4-2-3z" fill="#F4F5F5"/>
<path transform="translate(212,286)" d="m0 0 4 4-5 1-4 4-2-1z" fill="#F6F6F5"/>
<path transform="translate(705,281)" d="m0 0" fill="#FDFDFD"/>
</svg>
